<svg id="Layer_1" data-name="Layer 1" xmlns="http://www.w3.org/2000/svg" viewBox="0 0 256 256"><defs><style>.cls-1{fill:#fff;}.cls-2{fill:none;stroke:#000;stroke-miterlimit:10;stroke-width:5px;}</style></defs><title>icon</title><polygon class="cls-1" points="41.38 61.88 231.23 63.78 222.75 146.99 75.83 157.69 41.38 61.88"/><path d="M51.38,69,223.49,70.7l-7.11,69.73L80.62,150.32,51.38,69M39.78,54.86a5.88,5.88,0,0,0-5.53,7.87l35.28,98.12a5.88,5.88,0,0,0,5.53,3.89l.43,0,148.7-10.83a5.88,5.88,0,0,0,5.42-5.27l8.71-85.37a5.88,5.88,0,0,0-5.79-6.48L39.85,54.86Z"/><path d="M69.57,159.33l7.31,34.76c2,9.44,16.45,5.45,14.46-4L84,155.34c-2-9.44-16.45-5.45-14.46,4Z"/><path d="M213.33,187.08l-112.68.37-16.19.05c-9.65,0-9.67,15,0,15l112.68-.37,16.19-.05c9.65,0,9.67-15,0-15Z"/><path d="M56.24,54.86,53.7,29.13c-.4-4-3.16-7.5-7.5-7.5-3.75,0-7.9,3.44-7.5,7.5l2.54,25.73c.4,4,3.16,7.5,7.5,7.5,3.75,0,7.9-3.44,7.5-7.5Z"/><path d="M14.67,30l28.67,6.27c9.41,2.06,13.43-12.4,4-14.46L18.66,15.56C9.25,13.5,5.23,28,14.67,30Z"/><circle class="cls-2" cx="96.84" cy="223.97" r="16.03"/><circle class="cls-2" cx="201.78" cy="223.97" r="16.03"/></svg>