<?xml version="1.0" encoding="UTF-8"?>
<svg width="16px" height="16px" viewBox="0 0 16 16" version="1.1" xmlns="http://www.w3.org/2000/svg" xmlns:xlink="http://www.w3.org/1999/xlink">
    <!-- Generator: Sketch 51.1 (57501) - http://www.bohemiancoding.com/sketch -->
    <title>Slice</title>
    <desc>Created with Sketch.</desc>
    <defs></defs>
    <g id="Price-Alerts" stroke="none" stroke-width="1" fill="none" fill-rule="evenodd">
        <path d="M14.6666667,5.39288889 L10.5633778,5.39288889 L9.38631111,1 L8.52764444,1.23004444 L9.64302222,5.39288889 L6.35697778,5.39288889 L7.47235556,1.23004444 L6.61368889,1 L5.43662222,5.39288889 L1.33333333,5.39288889 C0.598044444,5.39288889 0,5.99093333 0,6.72622222 C0,7.38382222 0.478755556,7.93031111 1.10595556,8.03875556 L2.66666667,14.2817778 L13.3607111,14.2817778 L14.9224889,8.03431111 C15.5356444,7.91448889 16,7.37386667 16,6.72622222 C16,5.99093333 15.4019556,5.39288889 14.6666667,5.39288889 Z M2.5968,8.504 L4.62826667,8.504 L4.85048889,10.2817778 L3.04124444,10.2817778 L2.5968,8.504 Z M3.70791111,12.9484444 L3.26346667,11.1706667 L4.9616,11.1706667 L5.18382222,12.9484444 L3.70791111,12.9484444 Z M7.56924444,12.9484444 L6.07964444,12.9484444 L5.85742222,11.1706667 L7.56942222,11.1706667 L7.56942222,12.9484444 L7.56924444,12.9484444 Z M7.56924444,10.2817778 L5.74613333,10.2817778 L5.52391111,8.504 L7.56924444,8.504 L7.56924444,10.2817778 Z M9.94791111,12.9484444 L8.45813333,12.9484444 L8.45813333,11.1706667 L10.1701333,11.1706667 L9.94791111,12.9484444 Z M10.2812444,10.2817778 L8.45813333,10.2817778 L8.45813333,8.504 L10.5032889,8.504 L10.2812444,10.2817778 Z M12.3196444,12.9484444 L10.8437333,12.9484444 L11.0659556,11.1706667 L12.7640889,11.1706667 L12.3196444,12.9484444 Z M12.9863111,10.2817778 L11.1768889,10.2817778 L11.3991111,8.504 L13.4307556,8.504 L12.9863111,10.2817778 Z M14.6666667,7.17066667 L1.33333333,7.17066667 C1.08817778,7.17066667 0.888888889,6.9712 0.888888889,6.72622222 C0.888888889,6.48124444 1.08817778,6.28177778 1.33333333,6.28177778 L14.6666667,6.28177778 C14.9118222,6.28177778 15.1111111,6.48124444 15.1111111,6.72622222 C15.1111111,6.9712 14.9118222,7.17066667 14.6666667,7.17066667 Z" id="Shape" fill="#3B3B3C" fill-rule="nonzero"></path>
    </g>
</svg>