<?xml version="1.0" encoding="UTF-8"?>
<svg width="16px" height="16px" viewBox="0 0 16 16" version="1.1" xmlns="http://www.w3.org/2000/svg" xmlns:xlink="http://www.w3.org/1999/xlink">
    <!-- Generator: Sketch 51.1 (57501) - http://www.bohemiancoding.com/sketch -->
    <title>Combined Shape</title>
    <desc>Created with Sketch.</desc>
    <defs></defs>
    <g id="Price-Alerts" stroke="none" stroke-width="1" fill="none" fill-rule="evenodd">
        <path d="M2.3432,6 L0,6 L8,0 L16,6 L13.65664,6 L13.65664,10 L16,10 L8,16 L0,10 L2.3432,10 L2.3432,6 Z M8.44290113,7.27564893 C7.40778559,6.87748019 7.06335887,6.67664173 7.06335887,6.27213669 C7.06335887,5.85465578 7.62045711,5.6051906 8.15893106,5.6051906 C8.69740501,5.6051906 9.25450326,5.85465578 9.25450326,6.27213669 L10.8178621,6.27213669 C10.8178621,5.18304619 9.9780148,4.32541878 8.78473268,4.10120185 L8.78473268,3 L7.53404558,3 L7.53404558,4.10101112 C6.34026631,4.32496071 5.5,5.18277572 5.5,6.27213669 C5.5,7.81870196 6.87648902,8.3481694 7.88167875,8.73480837 C8.91175558,9.13106826 9.25450326,9.33022923 9.25450326,9.72862623 C9.25450326,10.1461071 8.69740501,10.3955723 8.15893106,10.3955723 C7.62045711,10.3955723 7.06335887,10.1461071 7.06335887,9.72862623 L5.5,9.72862623 C5.5,10.8179872 6.34026475,11.6758022 7.53404558,11.8997518 L7.53404558,13 L8.78473268,13 L8.78473268,11.8995611 C9.9780148,11.6753441 10.8178621,10.8177105 10.8178621,9.72862623 C10.8178621,8.18923677 9.44519083,7.6612217 8.44290113,7.27564893 Z" id="Combined-Shape" fill="#6D6D6E" fill-rule="nonzero"></path>
    </g>
</svg>