<!-- This Source Code Form is subject to the terms of the Mozilla Public
   - License, v. 2.0. If a copy of the MPL was not distributed with this
   - file, You can obtain one at http://mozilla.org/MPL/2.0/. -->
<svg id="Layer_1" data-name="Layer 1" xmlns="http://www.w3.org/2000/svg" viewBox="0 0 324 256"><defs><style>.cls-1{fill:none;stroke:#184889;stroke-miterlimit:10;stroke-width:1.42px;}.cls-1,.cls-3{opacity:0.5;}.cls-2,.cls-4{fill:#184889;}.cls-2{opacity:0.2;}</style></defs><title>Artboard 1</title><rect class="cls-1" x="32.63" y="8.94" width="83.37" height="64.9" rx="8.45"/><rect class="cls-1" x="12.41" y="107.53" width="68.26" height="118.88" rx="8.45"/><circle class="cls-2" cx="289.24" cy="76" r="6.32"/><circle class="cls-2" cx="271.54" cy="76" r="6.32"/><circle class="cls-2" cx="253.85" cy="76" r="6.32"/><g class="cls-3"><path class="cls-4" d="M289.24,71.11a4.9,4.9,0,1,1-4.9,4.89,4.9,4.9,0,0,1,4.9-4.89m0-1.43A6.32,6.32,0,1,0,295.56,76a6.32,6.32,0,0,0-6.32-6.32Z"/></g><g class="cls-3"><path class="cls-4" d="M271.54,71.11A4.9,4.9,0,1,1,266.65,76a4.9,4.9,0,0,1,4.89-4.89m0-1.43A6.32,6.32,0,1,0,277.86,76a6.32,6.32,0,0,0-6.32-6.32Z"/></g><g class="cls-3"><path class="cls-4" d="M253.85,71.11A4.9,4.9,0,1,1,249,76a4.9,4.9,0,0,1,4.9-4.89m0-1.43A6.32,6.32,0,1,0,260.17,76a6.32,6.32,0,0,0-6.32-6.32Z"/></g><path class="cls-2" d="M187.75,121.44H127.58a3.8,3.8,0,0,1,0-7.59h60.17a3.8,3.8,0,0,1,0,7.59Z"/><path class="cls-2" d="M187.75,146.75H127.58a3.79,3.79,0,1,1,0-7.58h60.17a3.79,3.79,0,0,1,0,7.58Z"/><g class="cls-3"><path class="cls-4" d="M187.75,115.27a2.38,2.38,0,0,1,0,4.75H127.58a2.38,2.38,0,0,1,0-4.75h60.17m0-1.42H127.58a3.8,3.8,0,0,0,0,7.59h60.17a3.8,3.8,0,0,0,0-7.59Z"/></g><g class="cls-3"><path class="cls-4" d="M187.75,140.59a2.37,2.37,0,0,1,0,4.74H127.58a2.37,2.37,0,0,1,0-4.74h60.17m0-1.42H127.58a3.79,3.79,0,1,0,0,7.58h60.17a3.79,3.79,0,0,0,0-7.58Z"/></g><path class="cls-1" d="M13.22,122.7H90.28a8.09,8.09,0,0,1,8.09,8.09l0,70.3a15.17,15.17,0,0,0,15.17,15.17H287.8A15.16,15.16,0,0,0,303,201.12l.16-93.49A15.17,15.17,0,0,0,288,92.44H106.46a8.09,8.09,0,0,1-8.09-8.09V74.72a15.17,15.17,0,0,1,15.17-15.17H277.86A15.17,15.17,0,0,0,293,44.38V4.43"/><line class="cls-1" x1="12.41" y1="208.49" x2="80.82" y2="208.49"/><path class="cls-2" d="M104.44,67.16H44.27a4,4,0,0,1-4.05-4V20.57a4,4,0,0,1,4.05-4.05h60.17a4,4,0,0,1,4,4.05V63.11A4,4,0,0,1,104.44,67.16Z"/><path class="cls-1" d="M36.11,11.33,68.94,44.65a7.58,7.58,0,0,0,10.82,0l32.83-33.32"/><g class="cls-3"><path class="cls-4" d="M104.44,17.94a2.63,2.63,0,0,1,2.62,2.63V63.11a2.62,2.62,0,0,1-2.62,2.62H44.27a2.62,2.62,0,0,1-2.63-2.62V20.57a2.63,2.63,0,0,1,2.63-2.63h60.17m0-1.42H44.27a4,4,0,0,0-4.05,4.05V63.11a4,4,0,0,0,4.05,4h60.17a4,4,0,0,0,4-4V20.57a4,4,0,0,0-4-4.05Z"/></g><path class="cls-1" d="M275.61,194.85l7,8.71a4,4,0,0,0,6.31,0l5.27-6.54a5.83,5.83,0,0,1,4.55-2.18h6.74a8.09,8.09,0,0,0,8.09-8.09V127a8.09,8.09,0,0,0-8.09-8.09H233.13A8.09,8.09,0,0,0,225,127v62.25a8.09,8.09,0,0,0,8.09,8.09h11.63a8.09,8.09,0,0,0,8.09-8.09v-6.57a8.09,8.09,0,0,0-8.09-8.09H185.1a8.09,8.09,0,0,0-8.09,8.09v49.62a8.09,8.09,0,0,0,8.09,8.09h29.55a5.81,5.81,0,0,1,4.56,2.2l5.2,6.49a4,4,0,0,0,6.32,0l5.2-6.49a5.84,5.84,0,0,1,4.56-2.2h4.27a8.09,8.09,0,0,0,8.09-8.09v-8.16"/><circle class="cls-2" cx="286.98" cy="155.59" r="6.32"/><circle class="cls-2" cx="269.29" cy="155.59" r="6.32"/><circle class="cls-2" cx="251.59" cy="155.59" r="6.32"/><rect class="cls-2" x="184.59" y="182.21" width="60.67" height="50.64" rx="4.23"/><g class="cls-3"><path class="cls-4" d="M287,150.7a4.9,4.9,0,1,1-4.9,4.89,4.9,4.9,0,0,1,4.9-4.89m0-1.43a6.32,6.32,0,1,0,6.32,6.32,6.32,6.32,0,0,0-6.32-6.32Z"/></g><g class="cls-3"><path class="cls-4" d="M269.29,150.7a4.9,4.9,0,1,1-4.9,4.89,4.89,4.89,0,0,1,4.9-4.89m0-1.43a6.32,6.32,0,1,0,6.32,6.32,6.31,6.31,0,0,0-6.32-6.32Z"/></g><g class="cls-3"><path class="cls-4" d="M251.59,150.7a4.9,4.9,0,1,1-4.9,4.89,4.9,4.9,0,0,1,4.9-4.89m0-1.43a6.32,6.32,0,1,0,6.32,6.32,6.32,6.32,0,0,0-6.32-6.32Z"/></g><g class="cls-3"><path class="cls-4" d="M241,183.63a2.81,2.81,0,0,1,2.81,2.81v42.18a2.81,2.81,0,0,1-2.81,2.81H188.82a2.8,2.8,0,0,1-2.8-2.81V186.44a2.8,2.8,0,0,1,2.8-2.81H241m0-1.42H188.82a4.23,4.23,0,0,0-4.23,4.23v42.18a4.23,4.23,0,0,0,4.23,4.23H241a4.23,4.23,0,0,0,4.23-4.23V186.44a4.23,4.23,0,0,0-4.23-4.23Z"/></g><path class="cls-2" d="M42.94,161.76a3.78,3.78,0,0,1-2.68-1.11l-11.79-11.8a3.79,3.79,0,1,1,5.36-5.36l9.11,9.12L62.45,133.1a3.79,3.79,0,0,1,5.36,5.37L45.63,160.65A3.8,3.8,0,0,1,42.94,161.76Z"/><g class="cls-3"><path class="cls-4" d="M65,133.51a2.32,2.32,0,0,1,1.67.69,2.36,2.36,0,0,1,0,3.35l-22.09,22.1a2.38,2.38,0,0,1-3.35,0l-11.8-11.8a2.37,2.37,0,1,1,3.35-3.35l9.12,9.11,1,1,1-1L63.36,134.2a2.34,2.34,0,0,1,1.68-.69m0-1.42a3.78,3.78,0,0,0-2.68,1.11L42.94,152.61l-9.11-9.12a3.78,3.78,0,0,0-2.68-1.11,3.79,3.79,0,0,0-2.68,6.47l11.79,11.8a3.8,3.8,0,0,0,5.37,0l22.09-22.09A3.79,3.79,0,0,0,65,132.09Z"/></g><path class="cls-2" d="M42.94,197a3.78,3.78,0,0,1-2.68-1.11L28.47,184.05a3.79,3.79,0,1,1,5.36-5.37l9.11,9.12,19.51-19.5a3.79,3.79,0,0,1,5.36,5.36L45.63,195.84A3.8,3.8,0,0,1,42.94,197Z"/><g class="cls-3"><path class="cls-4" d="M65,168.7a2.37,2.37,0,0,1,1.67,4l-22.09,22.1a2.38,2.38,0,0,1-3.35,0L29.47,183a2.37,2.37,0,1,1,3.35-3.35l9.12,9.11,1,1,1-1,19.41-19.41A2.38,2.38,0,0,1,65,168.7m0-1.42a3.78,3.78,0,0,0-2.68,1.11L42.94,187.8l-9.11-9.12a3.78,3.78,0,0,0-2.68-1.11,3.79,3.79,0,0,0-2.68,6.48l11.79,11.79a3.8,3.8,0,0,0,5.37,0l22.09-22.09A3.79,3.79,0,0,0,65,167.28Z"/></g></svg>
